<svg width="32" height="31" viewBox="0 0 32 31" fill="none" xmlns="http://www.w3.org/2000/svg">
<path d="M19.7888 10.4088L15.9704 14.2272L12.152 10.4088C11.9833 10.24 11.7543 10.1452 11.5157 10.1452C11.277 10.1452 11.048 10.24 10.8793 10.4088C10.7105 10.5776 10.6157 10.8065 10.6157 11.0452C10.6157 11.2839 10.7105 11.5128 10.8793 11.6816L14.6976 15.5L10.8793 19.3184C10.7105 19.4872 10.6157 19.7161 10.6157 19.9548C10.6157 20.1935 10.7105 20.4224 10.8793 20.5912C11.048 20.76 11.277 20.8548 11.5157 20.8548C11.7543 20.8548 11.9833 20.76 12.152 20.5912L15.9704 16.7728L19.7888 20.5912C19.9576 20.76 20.1865 20.8548 20.4252 20.8548C20.6639 20.8548 20.8928 20.76 21.0616 20.5912C21.2304 20.4224 21.3252 20.1935 21.3252 19.9548C21.3252 19.7161 21.2304 19.4872 21.0616 19.3184L17.2432 15.5L21.0616 11.6816C21.2304 11.5128 21.3252 11.2839 21.3252 11.0452C21.3252 10.8065 21.2304 10.5776 21.0616 10.4088C20.8928 10.24 20.6639 10.1452 20.4252 10.1452C20.1865 10.1452 19.9576 10.24 19.7888 10.4088Z" fill="#8E8E8E"/>
</svg>
