<svg width="22" height="22" viewBox="0 0 22 22" fill="none" xmlns="http://www.w3.org/2000/svg">
<path d="M10.0976 15.5125H11.9026V10.0975H10.0976V15.5125ZM11.0001 8.29248C11.2558 8.29248 11.4703 8.20584 11.6436 8.03256C11.8169 7.85928 11.9032 7.64508 11.9026 7.38998C11.902 7.13487 11.8154 6.92068 11.6427 6.7474C11.47 6.57412 11.2558 6.48748 11.0001 6.48748C10.7444 6.48748 10.5302 6.57412 10.3575 6.7474C10.1848 6.92068 10.0982 7.13487 10.0976 7.38998C10.097 7.64508 10.1836 7.85958 10.3575 8.03346C10.5314 8.20734 10.7456 8.29368 11.0001 8.29248ZM11.0001 20.025C9.75164 20.025 8.57839 19.7879 7.48035 19.3138C6.38231 18.8397 5.42716 18.1968 4.61491 17.3852C3.80266 16.5735 3.15978 15.6184 2.68627 14.5197C2.21276 13.4211 1.9757 12.2478 1.9751 11C1.9745 9.75212 2.21155 8.57887 2.68627 7.48023C3.16098 6.38158 3.80386 5.42644 4.61491 4.61479C5.42596 3.80314 6.3811 3.16026 7.48035 2.68615C8.57959 2.21203 9.75284 1.97498 11.0001 1.97498C12.2474 1.97498 13.4206 2.21203 14.5198 2.68615C15.6191 3.16026 16.5742 3.80314 17.3853 4.61479C18.1963 5.42644 18.8395 6.38158 19.3148 7.48023C19.7901 8.57887 20.0269 9.75212 20.0251 11C20.0233 12.2478 19.7862 13.4211 19.3139 14.5197C18.8416 15.6184 18.1987 16.5735 17.3853 17.3852C16.5718 18.1968 15.6167 18.84 14.5198 19.3147C13.423 19.7894 12.2498 20.0262 11.0001 20.025ZM11.0001 18.22C13.0157 18.22 14.7229 17.5205 16.1218 16.1217C17.5207 14.7228 18.2201 13.0156 18.2201 11C18.2201 8.98439 17.5207 7.27716 16.1218 5.87829C14.7229 4.47941 13.0157 3.77998 11.0001 3.77998C8.98452 3.77998 7.27729 4.47941 5.87841 5.87829C4.47954 7.27716 3.7801 8.98439 3.7801 11C3.7801 13.0156 4.47954 14.7228 5.87841 16.1217C7.27729 17.5205 8.98452 18.22 11.0001 18.22Z" fill="white"/>
</svg>
