<svg xmlns="http://www.w3.org/2000/svg" width="20" height="20" viewBox="0 0 20 20" fill="none">
<path d="M9.0976 14.5125H10.9026V9.09748H9.0976V14.5125ZM10.0001 7.29248C10.2558 7.29248 10.4703 7.20584 10.6436 7.03256C10.8169 6.85928 10.9032 6.64508 10.9026 6.38998C10.902 6.13487 10.8154 5.92068 10.6427 5.7474C10.47 5.57412 10.2558 5.48748 10.0001 5.48748C9.74439 5.48748 9.5302 5.57412 9.35752 5.7474C9.18484 5.92068 9.0982 6.13487 9.0976 6.38998C9.097 6.64508 9.18364 6.85958 9.35752 7.03346C9.5314 7.20734 9.74559 7.29368 10.0001 7.29248ZM10.0001 19.025C8.75164 19.025 7.57839 18.7879 6.48035 18.3138C5.38231 17.8397 4.42716 17.1968 3.61491 16.3852C2.80266 15.5735 2.15978 14.6184 1.68627 13.5197C1.21276 12.4211 0.9757 11.2478 0.975099 9.99998C0.974497 8.75212 1.21155 7.57887 1.68627 6.48023C2.16098 5.38158 2.80386 4.42644 3.61491 3.61479C4.42596 2.80314 5.3811 2.16026 6.48035 1.68615C7.57959 1.21203 8.75284 0.974976 10.0001 0.974976C11.2474 0.974976 12.4206 1.21203 13.5198 1.68615C14.6191 2.16026 15.5742 2.80314 16.3853 3.61479C17.1963 4.42644 17.8395 5.38158 18.3148 6.48023C18.7901 7.57887 19.0269 8.75212 19.0251 9.99998C19.0233 11.2478 18.7862 12.4211 18.3139 13.5197C17.8416 14.6184 17.1987 15.5735 16.3853 16.3852C15.5718 17.1968 14.6167 17.84 13.5198 18.3147C12.423 18.7894 11.2498 19.0262 10.0001 19.025ZM10.0001 17.22C12.0157 17.22 13.7229 16.5205 15.1218 15.1217C16.5207 13.7228 17.2201 12.0156 17.2201 9.99998C17.2201 7.98439 16.5207 6.27716 15.1218 4.87829C13.7229 3.47941 12.0157 2.77998 10.0001 2.77998C7.98452 2.77998 6.27729 3.47941 4.87841 4.87829C3.47954 6.27716 2.7801 7.98439 2.7801 9.99998C2.7801 12.0156 3.47954 13.7228 4.87841 15.1217C6.27729 16.5205 7.98452 17.22 10.0001 17.22Z" fill="white"/>
</svg>